<svg width="26" height="26" fill="none" xmlns="http://www.w3.org/2000/svg"><path d="M16.873 9.086l-5.52 5.52-2.226-2.224s0 0 0 0A1.087 1.087 0 107.59 13.92s0 0 0 0l2.994 2.994h0a1.088 1.088 0 001.538 0h0l6.29-6.29s0 0 0 0a1.087 1.087 0 10-1.538-1.538h0zM13 25.15c6.715 0 12.15-5.434 12.15-12.15C25.15 6.285 19.716.85 13 .85 6.285.85.85 6.284.85 13c0 6.715 5.434 12.15 12.15 12.15zm0-22.125A9.97 9.97 0 0122.975 13 9.97 9.97 0 0113 22.975 9.97 9.97 0 013.025 13 9.97 9.97 0 0113 3.025z" fill="#198580" stroke="#198580" stroke-width=".3"/></svg>