<svg width="32" height="32" fill="none" xmlns="http://www.w3.org/2000/svg"><g opacity=".8" fill="#313131"><path d="M16 31.135A15.135 15.135 0 1131.133 16 15.152 15.152 0 0116 31.135zM16 1.73A14.27 14.27 0 1030.27 16 14.287 14.287 0 0016 1.73z"/><path d="M16 28.36A12.36 12.36 0 1128.36 16 12.374 12.374 0 0116 28.36zm0-23.855A11.495 11.495 0 1027.495 16 11.508 11.508 0 0016 4.505z"/><path d="M16 8.038a.432.432 0 01-.433-.432v-.883a.432.432 0 11.865 0v.883a.432.432 0 01-.432.432zM16 25.71a.432.432 0 01-.433-.433v-.883a.432.432 0 11.865 0v.883a.433.433 0 01-.432.433zM21.935 10.497a.432.432 0 01-.305-.738l.624-.625a.433.433 0 11.611.612l-.624.625a.432.432 0 01-.306.126zM9.44 22.992a.432.432 0 01-.307-.738l.625-.625a.432.432 0 01.611.612l-.624.625a.432.432 0 01-.306.126zM25.277 16.432h-.884a.432.432 0 110-.864h.884a.432.432 0 110 .864zM7.606 16.432h-.884a.432.432 0 110-.864h.884a.432.432 0 110 .864zM22.56 22.992a.433.433 0 01-.305-.126l-.625-.625a.432.432 0 01.612-.612l.624.625a.433.433 0 01-.306.738zM10.064 10.497a.432.432 0 01-.306-.126l-.624-.625a.432.432 0 11.611-.612l.625.625a.433.433 0 01-.306.738zM13.658 17.297a.433.433 0 01-.15-.838l2.06-.762V9.946a.432.432 0 01.865 0V16a.433.433 0 01-.282.406l-2.343.864a.436.436 0 01-.15.027z"/></g></svg>