<svg width="32" height="32" fill="none" xmlns="http://www.w3.org/2000/svg"><g opacity=".8" fill="#212121"><path d="M16 9.6a2.133 2.133 0 00-2.134 2.133v18.134a2.133 2.133 0 104.267 0V11.733A2.133 2.133 0 0016 9.6zm1.066 20.267a1.067 1.067 0 11-2.133 0V11.733a1.067 1.067 0 112.133 0v18.134zM9.067 16a2.133 2.133 0 00-2.133 2.133v11.734a2.133 2.133 0 004.266 0V18.133A2.133 2.133 0 009.067 16zm1.067 13.867a1.067 1.067 0 11-2.134 0V18.133a1.067 1.067 0 112.134 0v11.734zM2.133 23.467A2.133 2.133 0 000 25.6v4.267a2.133 2.133 0 004.267 0V25.6a2.133 2.133 0 00-2.134-2.133zm1.067 6.4a1.067 1.067 0 11-2.133 0V25.6a1.067 1.067 0 112.133 0v4.267zM22.933 3.2A2.133 2.133 0 0020.8 5.333v24.534a2.133 2.133 0 104.267 0V5.333A2.133 2.133 0 0022.933 3.2zM24 29.867a1.067 1.067 0 11-2.134 0V5.333a1.067 1.067 0 112.134 0v24.534zM29.867 0a2.133 2.133 0 00-2.134 2.133v27.734a2.133 2.133 0 104.267 0V2.133A2.133 2.133 0 0029.867 0zm1.066 29.867a1.067 1.067 0 11-2.133 0V2.133a1.067 1.067 0 112.133 0v27.734z"/></g></svg>