<svg width="32" height="32" fill="none" xmlns="http://www.w3.org/2000/svg"><g opacity=".8" fill="#313131"><path d="M24.216 30.486H7.784a.432.432 0 01-.432-.432V4.108a.432.432 0 01.432-.432h16.432a.432.432 0 01.433.432v25.946a.433.433 0 01-.433.433zm-16-.864h15.568V4.54H8.216v25.08z"/><path d="M20.758 4.54h-9.514a.432.432 0 01-.432-.432V1.946a.432.432 0 01.432-.433h9.514a.432.432 0 01.432.433v2.162a.432.432 0 01-.433.433zm-9.082-.864h8.649V2.378h-8.649v1.298zM30.702 30.486h-6.486a.432.432 0 01-.433-.432V9.297a.432.432 0 01.433-.432h6.486a.432.432 0 01.432.432v20.757a.432.432 0 01-.432.433zm-6.054-.864h5.622V9.73h-5.622v19.892zM7.784 30.486H1.298a.432.432 0 01-.433-.432V9.297a.432.432 0 01.433-.432h6.486a.432.432 0 01.433.432v20.757a.432.432 0 01-.433.433zm-6.054-.864h5.622V9.73H1.73v19.892zM20.432 10.27h-1.838a.865.865 0 01-.864-.865V7.568a.865.865 0 01.864-.865h1.838a.865.865 0 01.865.865v1.837a.865.865 0 01-.865.865zm-1.838-2.702v1.837h1.838V7.568h-1.838zM13.406 10.27h-1.838a.865.865 0 01-.865-.865V7.568a.865.865 0 01.865-.865h1.838a.865.865 0 01.865.865v1.837a.865.865 0 01-.865.865zm0-2.702h-1.838v1.837h1.838V7.568zM20.432 15.622h-1.838a.865.865 0 01-.864-.865v-1.838a.865.865 0 01.864-.865h1.838a.865.865 0 01.865.865v1.838a.865.865 0 01-.865.865zm-1.838-2.703v1.838h1.838v-1.838h-1.838zM13.406 15.622h-1.838a.865.865 0 01-.865-.865v-1.838a.865.865 0 01.865-.865h1.838a.865.865 0 01.865.865v1.838a.865.865 0 01-.865.865zm0-2.704h-1.838v1.838h1.838v-1.838zM20.432 20.973h-1.838a.865.865 0 01-.864-.865V18.27a.865.865 0 01.864-.865h1.838a.865.865 0 01.865.865v1.838a.865.865 0 01-.865.865zm-1.838-2.703v1.838h1.838V18.27h-1.838zM13.406 20.973h-1.838a.865.865 0 01-.865-.865V18.27a.865.865 0 01.865-.865h1.838a.865.865 0 01.865.865v1.838a.865.865 0 01-.865.865zm0-2.703h-1.838v1.838h1.838V18.27zM18.684 30.486h-5.369a.432.432 0 01-.432-.432v-6.919a.432.432 0 01.432-.432h5.37a.433.433 0 01.432.432v6.919a.433.433 0 01-.433.433zm-4.936-.864h4.504v-6.054h-4.504v6.054z"/><path d="M28.135 15.784h-1.351a.865.865 0 01-.865-.865v-1.351a.865.865 0 01.865-.865h1.35a.865.865 0 01.866.865v1.35a.865.865 0 01-.865.866zm-1.351-2.216v1.35h1.35v-1.35h-1.35zM28.135 21.216h-1.351a.865.865 0 01-.865-.865v-1.35a.865.865 0 01.865-.866h1.35A.865.865 0 0129 19v1.351a.865.865 0 01-.865.865zM26.784 19v1.351h1.35v-1.35h-1.35zM28.135 26.649h-1.351a.865.865 0 01-.865-.865v-1.352a.865.865 0 01.865-.864h1.35a.865.865 0 01.866.864v1.352a.865.865 0 01-.865.865zm-1.351-2.217v1.352h1.35v-1.352h-1.35zM5.216 15.784H3.865A.865.865 0 013 14.919v-1.351a.865.865 0 01.865-.865h1.35a.865.865 0 01.866.865v1.35a.865.865 0 01-.865.866zm-1.351-2.216v1.35h1.35v-1.35h-1.35zM5.216 21.216H3.865A.865.865 0 013 20.351v-1.35a.865.865 0 01.865-.866h1.35a.865.865 0 01.866.865v1.351a.865.865 0 01-.865.865zM3.865 19v1.351h1.35v-1.35h-1.35zM5.216 26.649H3.865A.865.865 0 013 25.784v-1.352a.865.865 0 01.865-.864h1.35a.865.865 0 01.866.864v1.352a.865.865 0 01-.865.865zm-1.351-2.217v1.352h1.35v-1.352h-1.35z"/></g></svg>