<svg width="32" height="32" fill="none" xmlns="http://www.w3.org/2000/svg"><g opacity=".8" fill="#313131"><path d="M29.838 31.135H2.163a1.297 1.297 0 01-1.298-1.297v-19.17a.432.432 0 01.433-.432h29.405a.432.432 0 01.433.432v19.17a1.297 1.297 0 01-1.298 1.297zM1.73 11.1v18.738a.432.432 0 00.433.432h27.675a.433.433 0 00.433-.432V11.1H1.73z"/><path d="M1.298 11.1a.432.432 0 01-.433-.432V5.19a1.297 1.297 0 011.298-1.297h4.505a.432.432 0 110 .865H2.163a.432.432 0 00-.433.432v5.48a.432.432 0 01-.432.432zM30.703 11.1a.432.432 0 01-.433-.432V5.19a.432.432 0 00-.432-.432h-4.506a.432.432 0 010-.865h4.506a1.297 1.297 0 011.297 1.297v5.48a.433.433 0 01-.432.432zM22.236 4.757H9.764a.432.432 0 010-.865h12.472a.432.432 0 110 .865z"/><path d="M1.298 11.1a.432.432 0 01-.433-.432V5.19a1.297 1.297 0 011.298-1.297h4.505a.432.432 0 110 .865H2.163a.432.432 0 00-.433.432v5.48a.432.432 0 01-.432.432zM30.703 11.1a.432.432 0 01-.433-.432V5.19a.432.432 0 00-.432-.432h-4.506a.432.432 0 010-.865h4.506a1.297 1.297 0 011.297 1.297v5.48a.433.433 0 01-.432.432zM22.236 4.757H9.764a.432.432 0 010-.865h12.472a.432.432 0 110 .865z"/><path d="M23.784 7.779a1.984 1.984 0 01-1.982-1.982V2.854a1.982 1.982 0 013.963 0v2.943a1.984 1.984 0 01-1.981 1.982zm0-6.042a1.118 1.118 0 00-1.117 1.117v2.943a1.118 1.118 0 002.234 0V2.854a1.119 1.119 0 00-1.117-1.117zM8.216 7.779a1.984 1.984 0 01-1.982-1.982V2.854a1.982 1.982 0 113.964 0v2.943A1.984 1.984 0 018.216 7.78zm0-6.042A1.118 1.118 0 007.1 2.854v2.943a1.117 1.117 0 102.234 0V2.854a1.118 1.118 0 00-1.117-1.117zM26.486 17.226h-2.162a.865.865 0 01-.865-.865v-1.73a.865.865 0 01.865-.864h2.162a.865.865 0 01.865.864v1.73a.865.865 0 01-.865.865zm-2.162-2.595v1.73h2.162v-1.73h-2.162zM20.215 17.226h-2.162a.865.865 0 01-.864-.865v-1.73a.865.865 0 01.864-.864h2.162a.865.865 0 01.865.864v1.73a.865.865 0 01-.864.865zm-2.162-2.595v1.73h2.162v-1.73h-2.162zM13.946 17.226h-2.162a.865.865 0 01-.865-.865v-1.73a.865.865 0 01.865-.864h2.162a.865.865 0 01.865.864v1.73a.865.865 0 01-.865.865zm-2.162-2.595v1.73h2.162v-1.73h-2.162zM26.486 22.415h-2.162a.865.865 0 01-.865-.865v-1.73a.865.865 0 01.865-.864h2.162a.865.865 0 01.865.865v1.73a.865.865 0 01-.865.864zm-2.162-2.594v1.73h2.162v-1.73h-2.162zM20.215 22.415h-2.162a.865.865 0 01-.864-.865v-1.73a.865.865 0 01.864-.864h2.162a.865.865 0 01.865.865v1.73a.865.865 0 01-.864.864zm-2.162-2.594v1.73h2.162v-1.73h-2.162zM13.946 22.415h-2.162a.865.865 0 01-.865-.865v-1.73a.865.865 0 01.865-.864h2.162a.865.865 0 01.865.865v1.73a.865.865 0 01-.865.864zm-2.162-2.594v1.73h2.162v-1.73h-2.162zM7.675 22.415H5.513a.865.865 0 01-.865-.865v-1.73a.865.865 0 01.865-.864h2.162a.865.865 0 01.865.865v1.73a.865.865 0 01-.865.864zm-2.162-2.594v1.73h2.162v-1.73H5.513zM20.215 27.604h-2.162a.865.865 0 01-.864-.865v-1.73a.865.865 0 01.864-.864h2.162a.865.865 0 01.865.865v1.73a.865.865 0 01-.864.864zm-2.162-2.594v1.73h2.162v-1.73h-2.162zM13.946 27.604h-2.162a.865.865 0 01-.865-.865v-1.73a.865.865 0 01.865-.864h2.162a.865.865 0 01.865.865v1.73a.865.865 0 01-.865.864zm-2.162-2.594v1.73h2.162v-1.73h-2.162zM7.675 27.604H5.513a.865.865 0 01-.865-.865v-1.73a.865.865 0 01.865-.864h2.162a.865.865 0 01.865.865v1.73a.865.865 0 01-.865.864zM5.513 25.01v1.73h2.162v-1.73H5.513z"/></g></svg>